<svg width="481" height="225" viewBox="0 0 481 225" fill="none" xmlns="http://www.w3.org/2000/svg">
<g clip-path="url(#clip0_12_202)">
<path d="M-7.62939e-06 224.896H480.891V0.00520325H-7.62939e-06V224.896Z" fill="#221E1F"/>
<path d="M8.22395 218.896H472.667V6.0052H8.22395V218.896Z" fill="#FDDC66"/>
<path d="M17.5573 212.896H463.333V12.0052H17.5573V212.896Z" fill="#3865B0"/>
<path d="M88.8437 177.286H80.375V181.146H88.0885V186.115H80.375V195.151H73.3333V172.312H88.8437" fill="#221E1F"/>
<path d="M113.656 172.318V184.677C113.656 185.682 113.677 186.422 113.714 186.901C113.781 187.719 114.099 188.448 114.667 189.094C115.078 189.552 115.599 189.906 116.234 190.156C116.87 190.406 117.568 190.531 118.333 190.531C119.13 190.531 119.875 190.401 120.568 190.13C121.26 189.865 121.812 189.49 122.224 189.01C122.62 188.552 122.88 188.047 123.005 187.49C123.13 186.932 123.193 185.995 123.193 184.677V172.318H130.234V185.479C130.234 186.875 130.099 188.047 129.839 188.995C129.427 190.51 128.448 191.88 126.901 193.109C124.719 194.859 121.786 195.734 118.099 195.734C116.365 195.734 114.714 195.495 113.141 195.016C111.568 194.536 110.297 193.885 109.333 193.057C108.344 192.224 107.641 191.234 107.229 190.089C106.823 188.948 106.62 187.411 106.62 185.479V172.318" fill="#221E1F"/>
<path d="M195.245 195.151V172.318H202.286L215.234 186.281V172.318H222.271V195.151H215.234L202.286 181.167V195.151" fill="#221E1F"/>
<path d="M242.615 195.151H249.651V172.318H242.615V195.151Z" fill="#221E1F"/>
<path d="M284.219 177.286V195.151H277.182V177.286H271.453V172.312H290.052V177.286" fill="#221E1F"/>
<path d="M316.63 172.318V184.677C316.63 185.682 316.651 186.422 316.687 186.901C316.755 187.719 317.073 188.448 317.641 189.094C318.052 189.552 318.573 189.906 319.208 190.156C319.844 190.406 320.542 190.531 321.307 190.531C322.104 190.531 322.849 190.401 323.542 190.13C324.234 189.865 324.786 189.49 325.198 189.01C325.594 188.552 325.854 188.047 325.979 187.49C326.104 186.932 326.167 185.995 326.167 184.677V172.318H333.208V185.479C333.208 186.875 333.073 188.047 332.812 188.995C332.401 190.51 331.422 191.88 329.875 193.109C327.693 194.859 324.76 195.734 321.073 195.734C319.339 195.734 317.687 195.495 316.115 195.016C314.542 194.536 313.271 193.885 312.307 193.057C311.318 192.224 310.615 191.234 310.203 190.089C309.797 188.948 309.589 187.411 309.589 185.479V172.318" fill="#221E1F"/>
<path d="M361.057 182.521H362.729C364.62 182.521 365.974 182.26 366.802 181.74C367.193 181.495 367.51 181.177 367.766 180.792C368.021 180.401 368.146 180.031 368.146 179.677C368.146 179.323 368.026 178.953 367.776 178.573C367.536 178.187 367.208 177.875 366.802 177.63C365.974 177.109 364.62 176.849 362.729 176.849H361.057V182.521ZM369.943 185.781L380.802 195.151H369.615L361.057 186.385V195.151H352.073V172.318H366.047C368.172 172.318 369.953 172.505 371.396 172.891C372.839 173.276 374.078 173.896 375.104 174.74C375.865 175.365 376.453 176.078 376.865 176.88C377.276 177.687 377.484 178.505 377.484 179.344C377.484 180.276 377.24 181.177 376.75 182.042C376.26 182.906 375.594 183.62 374.75 184.177C374.125 184.589 373.453 184.917 372.729 185.161C372.005 185.406 371.073 185.615 369.943 185.781Z" fill="#221E1F"/>
<path d="M160.615 182.521H162.286C164.177 182.521 165.531 182.26 166.359 181.74C166.75 181.495 167.068 181.177 167.323 180.792C167.578 180.401 167.703 180.031 167.703 179.677C167.703 179.323 167.578 178.953 167.333 178.573C167.089 178.187 166.766 177.875 166.359 177.63C165.531 177.109 164.177 176.849 162.286 176.849H160.615V182.521ZM169.495 185.781L180.359 195.151H169.172L160.615 186.385V195.151H151.63V172.318H165.599C167.724 172.318 169.51 172.505 170.953 172.891C172.396 173.276 173.635 173.896 174.661 174.74C175.422 175.365 176.01 176.078 176.422 176.88C176.833 177.687 177.042 178.505 177.042 179.344C177.042 180.276 176.797 181.177 176.307 182.042C175.818 182.906 175.151 183.62 174.307 184.177C173.682 184.589 173.01 184.917 172.281 185.161C171.557 185.406 170.63 185.615 169.495 185.781Z" fill="#221E1F"/>
<path d="M411.75 177.286H403.38V181.146H411.292V186.115H403.38V190.182H411.75V195.151H396.339V172.312H411.75" fill="#221E1F"/>
<path d="M88.8437 174.62H80.375V178.479H88.0885V183.448H80.375V192.484H73.3333V169.646H88.8437" fill="white"/>
<path d="M113.656 169.651V182.01C113.656 183.016 113.677 183.755 113.714 184.234C113.781 185.052 114.099 185.781 114.667 186.427C115.078 186.885 115.599 187.24 116.234 187.49C116.87 187.74 117.568 187.865 118.333 187.865C119.13 187.865 119.875 187.734 120.568 187.464C121.26 187.198 121.812 186.823 122.224 186.344C122.62 185.885 122.88 185.38 123.005 184.823C123.13 184.266 123.193 183.328 123.193 182.01V169.651H130.234V182.813C130.234 184.208 130.099 185.38 129.839 186.328C129.427 187.844 128.448 189.214 126.901 190.443C124.719 192.193 121.786 193.068 118.099 193.068C116.365 193.068 114.714 192.828 113.141 192.349C111.568 191.87 110.297 191.219 109.333 190.391C108.344 189.557 107.641 188.568 107.229 187.422C106.823 186.281 106.62 184.745 106.62 182.813V169.651" fill="white"/>
<path d="M195.245 192.484V169.651H202.286L215.234 183.615V169.651H222.271V192.484H215.234L202.286 178.5V192.484" fill="white"/>
<path d="M242.615 192.484H249.651V169.651H242.615V192.484Z" fill="white"/>
<path d="M284.219 174.62V192.484H277.182V174.62H271.453V169.646H290.052V174.62" fill="white"/>
<path d="M316.63 169.651V182.01C316.63 183.016 316.651 183.755 316.687 184.234C316.755 185.052 317.073 185.781 317.641 186.427C318.052 186.885 318.573 187.24 319.208 187.49C319.844 187.74 320.542 187.865 321.307 187.865C322.104 187.865 322.849 187.734 323.542 187.464C324.234 187.198 324.786 186.823 325.198 186.344C325.594 185.885 325.854 185.38 325.979 184.823C326.104 184.266 326.167 183.328 326.167 182.01V169.651H333.208V182.813C333.208 184.208 333.073 185.38 332.812 186.328C332.401 187.844 331.422 189.214 329.875 190.443C327.693 192.193 324.76 193.068 321.073 193.068C319.339 193.068 317.687 192.828 316.115 192.349C314.542 191.87 313.271 191.219 312.307 190.391C311.318 189.557 310.615 188.568 310.203 187.422C309.797 186.281 309.589 184.745 309.589 182.813V169.651" fill="white"/>
<path d="M361.057 179.854H362.729C364.62 179.854 365.974 179.594 366.802 179.073C367.193 178.828 367.51 178.51 367.766 178.125C368.021 177.734 368.146 177.365 368.146 177.01C368.146 176.656 368.026 176.286 367.776 175.906C367.536 175.521 367.208 175.208 366.802 174.964C365.974 174.443 364.62 174.182 362.729 174.182H361.057V179.854ZM369.943 183.115L380.802 192.484H369.615L361.057 183.719V192.484H352.073V169.651H366.047C368.172 169.651 369.953 169.839 371.396 170.224C372.839 170.609 374.078 171.229 375.104 172.073C375.865 172.698 376.453 173.411 376.865 174.214C377.276 175.021 377.484 175.839 377.484 176.677C377.484 177.609 377.24 178.51 376.75 179.375C376.26 180.24 375.594 180.953 374.75 181.51C374.125 181.922 373.453 182.25 372.729 182.495C372.005 182.74 371.073 182.948 369.943 183.115Z" fill="white"/>
<path d="M160.615 179.854H162.286C164.177 179.854 165.531 179.594 166.359 179.073C166.75 178.828 167.068 178.51 167.323 178.125C167.578 177.734 167.703 177.365 167.703 177.01C167.703 176.656 167.578 176.286 167.333 175.906C167.089 175.521 166.766 175.208 166.359 174.964C165.531 174.443 164.177 174.182 162.286 174.182H160.615V179.854ZM169.495 183.115L180.359 192.484H169.172L160.615 183.719V192.484H151.63V169.651H165.599C167.724 169.651 169.51 169.839 170.953 170.224C172.396 170.609 173.635 171.229 174.661 172.073C175.422 172.698 176.01 173.411 176.422 174.214C176.833 175.021 177.042 175.839 177.042 176.677C177.042 177.609 176.797 178.51 176.307 179.375C175.818 180.24 175.151 180.953 174.307 181.51C173.682 181.922 173.01 182.25 172.281 182.495C171.557 182.74 170.63 182.948 169.495 183.115Z" fill="white"/>
<path d="M411.75 174.62H403.38V178.479H411.292V183.448H403.38V187.516H411.75V192.484H396.339V169.646H411.75" fill="white"/>
<path d="M129.896 38.8229H121.432V43.401H129.146V49.2917H121.432V60H114.391V32.9323H129.896" fill="#221E1F"/>
<path d="M165.76 49.9062L162.38 41.2969L158.901 49.9062H165.76ZM167.87 55.2812H156.724L154.813 60H146.5L158.146 32.9323H166.729L178.13 60H169.729" fill="#221E1F"/>
<path d="M314.234 38.8229H303.885V43.401H313.672V49.2917H303.885V54.1094H314.234V60H295.182V32.9323H314.234" fill="#221E1F"/>
<path d="M205.635 45.026H207.312C209.208 45.026 210.573 44.7187 211.406 44.099C211.792 43.8125 212.115 43.4375 212.37 42.974C212.625 42.5156 212.75 42.0781 212.75 41.6562C212.75 41.2344 212.63 40.8021 212.38 40.3437C212.135 39.8906 211.812 39.5208 211.406 39.2344C210.573 38.6146 209.208 38.3073 207.312 38.3073H205.635V45.026ZM214.552 48.8958L225.458 60H214.224L205.635 49.6094V60H196.615V32.9323H210.641C212.776 32.9323 214.568 33.1615 216.016 33.6146C217.464 34.0729 218.703 34.8021 219.74 35.8073C220.5 36.5469 221.089 37.3958 221.505 38.3437C221.922 39.2969 222.125 40.2708 222.125 41.2604C222.125 42.3698 221.88 43.4375 221.391 44.4635C220.901 45.4844 220.229 46.3281 219.385 46.9896C218.755 47.4792 218.078 47.8698 217.349 48.1615C216.62 48.4531 215.693 48.6979 214.552 48.8958Z" fill="#221E1F"/>
<path d="M342.969 45.026H344.646C346.542 45.026 347.906 44.7187 348.74 44.099C349.125 43.8125 349.448 43.4375 349.703 42.974C349.958 42.5156 350.083 42.0781 350.083 41.6562C350.083 41.2344 349.964 40.8021 349.714 40.3437C349.469 39.8906 349.146 39.5208 348.74 39.2344C347.906 38.6146 346.542 38.3073 344.646 38.3073H342.969V45.026ZM351.885 48.8958L362.792 60H351.557L342.969 49.6094V60H333.948V32.9323H347.974C350.109 32.9323 351.901 33.1615 353.349 33.6146C354.797 34.0729 356.036 34.8021 357.073 35.8073C357.833 36.5469 358.422 37.3958 358.839 38.3437C359.255 39.2969 359.458 40.2708 359.458 41.2604C359.458 42.3698 359.214 43.4375 358.724 44.4635C358.234 45.4844 357.562 46.3281 356.719 46.9896C356.089 47.4792 355.411 47.8698 354.682 48.1615C353.953 48.4531 353.026 48.6979 351.885 48.8958Z" fill="#221E1F"/>
<path d="M395.688 34.4792L392.875 39.9531C391.339 38.7604 389.792 38.1667 388.234 38.1667C387.24 38.1667 386.469 38.4375 385.911 38.9792C385.437 39.4479 385.198 39.9479 385.198 40.4896C385.198 41.2031 385.641 41.8177 386.526 42.3385C386.818 42.5104 387.125 42.6458 387.438 42.7552C387.755 42.8594 388.641 43.1302 390.099 43.5677C391.458 43.9635 392.542 44.401 393.339 44.8646C394.141 45.3385 394.828 45.9375 395.411 46.6615C395.885 47.2552 396.234 47.9062 396.453 48.6094C396.672 49.3073 396.781 50.125 396.781 51.0469C396.781 54.0885 395.937 56.3958 394.26 57.9531C393.307 58.8437 392.135 59.526 390.74 60.0104C389.349 60.4896 387.844 60.7344 386.229 60.7344C384.406 60.7344 382.573 60.3854 380.74 59.6979C379.297 59.1719 377.99 58.4896 376.812 57.6615L379.823 51.9896C381.937 53.8906 384.01 54.8437 386.031 54.8437C387.302 54.8437 388.214 54.5208 388.771 53.8698C389.229 53.3542 389.464 52.7917 389.464 52.1823C389.464 51.3854 389.052 50.7292 388.234 50.1979C387.729 49.8646 386.724 49.4792 385.219 49.0469C383.698 48.6094 382.578 48.2344 381.859 47.9219C381.135 47.6146 380.531 47.2552 380.042 46.8437C378.604 45.651 377.88 43.8542 377.88 41.4479C377.88 38.9323 378.63 36.849 380.125 35.1927C381.87 33.25 384.193 32.276 387.104 32.276C388.542 32.276 389.995 32.4635 391.453 32.8437C392.917 33.2187 394.328 33.7656 395.688 34.4792Z" fill="#221E1F"/>
<path d="M243.557 60.2187V33.9271H251.115L256.448 42.8177H261.333L265.333 33.9271H272.891V60.2187H265.333V48.151H261.333L259.464 54.2969H257.448L255.427 48.151H251.766V60.2187" fill="#221E1F"/>
<path d="M129.896 36.1563H121.432V40.7344H129.146V46.625H121.432V57.3333H114.391V30.2656H129.896" fill="white"/>
<path d="M165.76 47.2396L162.38 38.6302L158.901 47.2396H165.76ZM167.87 52.6146H156.724L154.813 57.3333H146.5L158.146 30.2656H166.729L178.13 57.3333H169.729" fill="white"/>
<path d="M314.234 36.1563H303.885V40.7344H313.672V46.625H303.885V51.4427H314.234V57.3333H295.182V30.2656H314.234" fill="white"/>
<path d="M205.635 42.3594H207.312C209.208 42.3594 210.573 42.0521 211.406 41.4323C211.792 41.1458 212.115 40.7708 212.37 40.3073C212.625 39.849 212.75 39.4115 212.75 38.9896C212.75 38.5677 212.63 38.1354 212.38 37.6771C212.135 37.224 211.812 36.8542 211.406 36.5677C210.573 35.9479 209.208 35.6406 207.312 35.6406H205.635V42.3594ZM214.552 46.2292L225.458 57.3333H214.224L205.635 46.9427V57.3333H196.615V30.2656H210.641C212.776 30.2656 214.568 30.4948 216.016 30.9479C217.464 31.4063 218.703 32.1354 219.74 33.1406C220.5 33.8802 221.089 34.7292 221.505 35.6771C221.922 36.6302 222.125 37.6042 222.125 38.5938C222.125 39.7031 221.88 40.7708 221.391 41.7969C220.901 42.8177 220.229 43.6615 219.385 44.3229C218.755 44.8125 218.078 45.2031 217.349 45.4948C216.62 45.7865 215.693 46.0313 214.552 46.2292Z" fill="white"/>
<path d="M342.969 42.3594H344.646C346.542 42.3594 347.906 42.0521 348.74 41.4323C349.125 41.1458 349.448 40.7708 349.703 40.3073C349.958 39.849 350.083 39.4115 350.083 38.9896C350.083 38.5677 349.964 38.1354 349.714 37.6771C349.469 37.224 349.146 36.8542 348.74 36.5677C347.906 35.9479 346.542 35.6406 344.646 35.6406H342.969V42.3594ZM351.885 46.2292L362.792 57.3333H351.557L342.969 46.9427V57.3333H333.948V30.2656H347.974C350.109 30.2656 351.901 30.4948 353.349 30.9479C354.797 31.4063 356.036 32.1354 357.073 33.1406C357.833 33.8802 358.422 34.7292 358.839 35.6771C359.255 36.6302 359.458 37.6042 359.458 38.5938C359.458 39.7031 359.214 40.7708 358.724 41.7969C358.234 42.8177 357.562 43.6615 356.719 44.3229C356.089 44.8125 355.411 45.2031 354.682 45.4948C353.953 45.7865 353.026 46.0313 351.885 46.2292Z" fill="white"/>
<path d="M395.688 31.8125L392.875 37.2865C391.339 36.0938 389.792 35.5 388.234 35.5C387.24 35.5 386.469 35.7708 385.911 36.3125C385.437 36.7813 385.198 37.2813 385.198 37.8229C385.198 38.5365 385.641 39.151 386.526 39.6719C386.818 39.8438 387.125 39.9792 387.438 40.0885C387.755 40.1927 388.641 40.4635 390.099 40.901C391.458 41.2969 392.542 41.7344 393.339 42.1979C394.141 42.6719 394.828 43.2708 395.411 43.9948C395.885 44.5885 396.234 45.2396 396.453 45.9427C396.672 46.6406 396.781 47.4583 396.781 48.3802C396.781 51.4219 395.937 53.7292 394.26 55.2865C393.307 56.1771 392.135 56.8594 390.74 57.3438C389.349 57.8229 387.844 58.0677 386.229 58.0677C384.406 58.0677 382.573 57.7188 380.74 57.0313C379.297 56.5052 377.99 55.8229 376.812 54.9948L379.823 49.3229C381.937 51.224 384.01 52.1771 386.031 52.1771C387.302 52.1771 388.214 51.8542 388.771 51.2031C389.229 50.6875 389.464 50.125 389.464 49.5156C389.464 48.7188 389.052 48.0625 388.234 47.5313C387.729 47.1979 386.724 46.8125 385.219 46.3802C383.698 45.9427 382.578 45.5677 381.859 45.2552C381.135 44.9479 380.531 44.5885 380.042 44.1771C378.604 42.9844 377.88 41.1875 377.88 38.7813C377.88 36.2656 378.63 34.1823 380.125 32.526C381.87 30.5833 384.193 29.6094 387.104 29.6094C388.542 29.6094 389.995 29.7969 391.453 30.1771C392.917 30.5521 394.328 31.099 395.688 31.8125Z" fill="white"/>
<path d="M243.557 57.5521V31.2604H251.115L256.448 40.151H261.333L265.333 31.2604H272.891V57.5521H265.333V45.4844H261.333L259.464 51.6302H257.448L255.427 45.4844H251.766V57.5521" fill="white"/>
<path d="M76.3854 37.2656V89.5833C81.1979 85.401 85.6094 82.4531 89.6094 80.7188C93.6146 78.9948 97.776 78.1302 102.089 78.1302C107.589 78.1302 112.297 79.4167 116.203 82C120.109 84.5781 122.708 87.6094 123.99 91.0938C125.271 94.5729 125.911 100.448 125.911 108.698V136.948C125.911 142.469 126.536 145.911 127.792 147.281C129.036 148.646 131.573 149.51 135.385 149.875V152.656H90.9271V149.875C94.0521 149.51 96.3958 148.479 97.9635 146.776C99.0833 145.438 99.6458 142.161 99.6458 136.948V104.677C99.6458 98.6927 99.3698 94.9375 98.8021 93.4167C98.2396 91.8906 97.2865 90.7031 95.9427 89.8542C94.599 89.0052 93.0833 88.5781 91.3906 88.5781C88.8906 88.5781 86.4531 89.2865 84.0781 90.7031C81.7031 92.125 79.1354 94.6146 76.3854 98.1771V136.948C76.3854 142.109 76.8542 145.333 77.7917 146.625C78.9792 148.375 81.4167 149.458 85.1094 149.875V152.656H40.6458V149.875C44.3385 149.563 46.9635 148.583 48.526 146.932C49.5885 145.797 50.1198 142.469 50.1198 136.948V63.4219C50.1198 57.9531 49.5104 54.5469 48.2917 53.2083C47.0729 51.8646 44.526 50.9896 40.6458 50.5781V43.0417" fill="#221E1F"/>
<path d="M179.646 83.625C176.547 83.625 173.885 84.6198 171.672 86.6042C169.453 88.5885 167.995 92.5104 167.297 98.3698C166.599 104.224 166.25 112.365 166.25 122.786C166.25 128.307 166.677 133.464 167.526 138.266C168.193 141.927 169.62 144.714 171.807 146.625C173.995 148.531 176.484 149.484 179.281 149.484C182.01 149.484 184.292 148.844 186.115 147.552C188.479 145.797 190.062 143.344 190.849 140.198C192.062 135.297 192.672 125.391 192.672 110.479C192.672 101.708 192.094 95.6823 190.943 92.4063C189.786 89.1302 188.089 86.7448 185.839 85.25C184.26 84.1667 182.193 83.625 179.646 83.625ZM179.281 78.125C186.687 78.125 193.583 79.7552 199.964 83.0052C206.339 86.2552 211.182 90.8698 214.495 96.8594C217.802 102.844 219.458 109.396 219.458 116.516C219.458 126.786 216.391 135.375 210.255 142.286C202.844 150.646 192.615 154.828 179.552 154.828C166.734 154.828 156.865 151.005 149.943 143.37C143.016 135.734 139.557 126.885 139.557 116.828C139.557 106.453 143.094 97.4167 150.172 89.6979C157.245 81.9844 166.948 78.125 179.281 78.125Z" fill="#221E1F"/>
<path d="M263.578 80.2969V89.8125C267.854 85.4792 271.807 82.4531 275.437 80.7188C279.078 78.9948 283.057 78.1302 287.385 78.1302C292.38 78.1302 296.573 79.2083 299.953 81.3802C303.339 83.5469 305.948 86.849 307.781 91.2865C312.219 86.6406 316.479 83.2865 320.552 81.224C324.635 79.1615 328.896 78.1302 333.333 78.1302C338.719 78.1302 343.005 79.2761 346.193 81.5729C349.385 83.8698 351.604 86.7865 352.854 90.3177C354.104 93.8542 354.729 99.4896 354.729 107.229V136.87C354.729 142.443 355.271 145.901 356.354 147.24C357.432 148.583 359.693 149.458 363.135 149.875V152.656H322.932V149.875C326.094 149.615 328.422 148.479 329.922 146.469C330.922 145.073 331.417 141.875 331.417 136.87V105.76C331.417 99.3073 331.141 95.2083 330.589 93.4531C330.031 91.6979 329.156 90.3958 327.969 89.5469C326.771 88.6927 325.37 88.2656 323.76 88.2656C321.375 88.2656 318.964 89.0781 316.521 90.7031C314.078 92.3281 311.604 94.7656 309.115 98.0208V136.87C309.115 142.083 309.583 145.359 310.526 146.703C311.802 148.609 314.245 149.667 317.854 149.875V152.656H277.562V149.875C279.729 149.771 281.432 149.266 282.682 148.365C283.932 147.464 284.766 146.38 285.182 145.115C285.594 143.849 285.802 141.104 285.802 136.87V105.76C285.802 99.2083 285.526 95.1042 284.974 93.4531C284.417 91.8021 283.49 90.5104 282.182 89.5833C280.88 88.6563 279.474 88.1875 277.979 88.1875C275.76 88.1875 273.734 88.7344 271.901 89.8125C269.292 91.4167 266.521 94.1511 263.578 98.0208V136.87C263.578 141.979 264.12 145.344 265.203 146.969C266.286 148.594 268.547 149.563 271.984 149.875V152.656H231.865V149.875C235.135 149.563 237.469 148.583 238.859 146.932C239.802 145.797 240.271 142.443 240.271 136.87V96.0052C240.271 90.5365 239.729 87.1354 238.651 85.7917C237.568 84.4479 235.302 83.5729 231.865 83.1563V80.2969" fill="#221E1F"/>
<path d="M424.948 108.698C424.948 100.396 424.411 94.6875 423.339 91.5938C422.26 88.5 420.589 86.1511 418.312 84.5521C417.026 83.625 415.307 83.1563 413.151 83.1563C409.964 83.1563 407.349 84.474 405.323 87.1042C401.698 91.6979 399.885 97.9948 399.885 105.99V108.698H424.948ZM447.62 113.885H400.344C400.896 123.479 403.937 131.068 409.469 136.635C413.703 140.922 418.807 143.063 424.766 143.063C428.453 143.063 431.802 142.198 434.812 140.469C437.818 138.74 441.047 135.63 444.484 131.141L447.62 132.849C442.953 140.844 437.792 146.505 432.141 149.833C426.484 153.161 419.943 154.828 412.51 154.828C399.729 154.828 390.057 150.698 383.479 142.443C378.198 135.786 375.557 127.531 375.557 117.677C375.557 105.604 379.437 95.9948 387.214 88.849C394.984 81.7031 404.089 78.1302 414.536 78.1302C423.255 78.1302 430.833 81.1354 437.255 87.1458C443.672 93.1563 447.13 102.068 447.62 113.885Z" fill="#221E1F"/>
<path d="M76.3854 33.2656V85.5833C81.1979 81.401 85.6094 78.4531 89.6094 76.7188C93.6146 74.9948 97.776 74.1302 102.089 74.1302C107.589 74.1302 112.297 75.4167 116.203 78C120.109 80.5781 122.708 83.6094 123.99 87.0938C125.271 90.5729 125.911 96.4479 125.911 104.698V132.948C125.911 138.469 126.536 141.911 127.792 143.281C129.036 144.646 131.573 145.51 135.385 145.875V148.656H90.9271V145.875C94.0521 145.51 96.3958 144.479 97.9635 142.776C99.0833 141.438 99.6458 138.161 99.6458 132.948V100.677C99.6458 94.6927 99.3698 90.9375 98.8021 89.4167C98.2396 87.8906 97.2865 86.7031 95.9427 85.8542C94.599 85.0052 93.0833 84.5781 91.3906 84.5781C88.8906 84.5781 86.4531 85.2865 84.0781 86.7031C81.7031 88.125 79.1354 90.6146 76.3854 94.1771V132.948C76.3854 138.109 76.8542 141.333 77.7917 142.625C78.9792 144.375 81.4167 145.458 85.1094 145.875V148.656H40.6458V145.875C44.3385 145.563 46.9635 144.583 48.526 142.932C49.5885 141.797 50.1198 138.469 50.1198 132.948V59.4219C50.1198 53.9531 49.5104 50.5469 48.2917 49.2083C47.0729 47.8646 44.526 46.9896 40.6458 46.5781V39.0417" fill="#FDDC66"/>
<path d="M179.646 79.625C176.547 79.625 173.885 80.6198 171.672 82.6042C169.453 84.5885 167.995 88.5104 167.297 94.3698C166.599 100.224 166.25 108.365 166.25 118.786C166.25 124.307 166.677 129.464 167.526 134.266C168.193 137.927 169.62 140.714 171.807 142.625C173.995 144.531 176.484 145.484 179.281 145.484C182.01 145.484 184.292 144.844 186.115 143.552C188.479 141.797 190.062 139.344 190.849 136.198C192.062 131.297 192.672 121.391 192.672 106.479C192.672 97.7083 192.094 91.6823 190.943 88.4063C189.786 85.1302 188.089 82.7448 185.839 81.25C184.26 80.1667 182.193 79.625 179.646 79.625ZM179.281 74.125C186.687 74.125 193.583 75.7552 199.964 79.0052C206.339 82.2552 211.182 86.8698 214.495 92.8594C217.802 98.8438 219.458 105.396 219.458 112.516C219.458 122.786 216.391 131.375 210.255 138.286C202.844 146.646 192.615 150.828 179.552 150.828C166.734 150.828 156.865 147.005 149.943 139.37C143.016 131.734 139.557 122.885 139.557 112.828C139.557 102.453 143.094 93.4167 150.172 85.6979C157.245 77.9844 166.948 74.125 179.281 74.125Z" fill="#FDDC66"/>
<path d="M263.578 76.2969V85.8125C267.854 81.4792 271.807 78.4531 275.437 76.7188C279.078 74.9948 283.057 74.1302 287.385 74.1302C292.38 74.1302 296.573 75.2083 299.953 77.3802C303.339 79.5469 305.948 82.849 307.781 87.2865C312.219 82.6406 316.479 79.2865 320.552 77.224C324.635 75.1615 328.896 74.1302 333.333 74.1302C338.719 74.1302 343.005 75.2761 346.193 77.5729C349.385 79.8698 351.604 82.7865 352.854 86.3177C354.104 89.8542 354.729 95.4896 354.729 103.229V132.87C354.729 138.443 355.271 141.901 356.354 143.24C357.432 144.583 359.693 145.458 363.135 145.875V148.656H322.932V145.875C326.094 145.615 328.422 144.479 329.922 142.469C330.922 141.073 331.417 137.875 331.417 132.87V101.76C331.417 95.3073 331.141 91.2083 330.589 89.4531C330.031 87.6979 329.156 86.3958 327.969 85.5469C326.771 84.6927 325.37 84.2656 323.76 84.2656C321.375 84.2656 318.964 85.0781 316.521 86.7031C314.078 88.3281 311.604 90.7656 309.115 94.0208V132.87C309.115 138.083 309.583 141.359 310.526 142.703C311.802 144.609 314.245 145.667 317.854 145.875V148.656H277.562V145.875C279.729 145.771 281.432 145.266 282.682 144.365C283.932 143.464 284.766 142.38 285.182 141.115C285.594 139.849 285.802 137.104 285.802 132.87V101.76C285.802 95.2083 285.526 91.1042 284.974 89.4531C284.417 87.8021 283.49 86.5104 282.182 85.5833C280.88 84.6563 279.474 84.1875 277.979 84.1875C275.76 84.1875 273.734 84.7344 271.901 85.8125C269.292 87.4167 266.521 90.1511 263.578 94.0208V132.87C263.578 137.979 264.12 141.344 265.203 142.969C266.286 144.594 268.547 145.563 271.984 145.875V148.656H231.865V145.875C235.135 145.563 237.469 144.583 238.859 142.932C239.802 141.797 240.271 138.443 240.271 132.87V92.0052C240.271 86.5365 239.729 83.1354 238.651 81.7917C237.568 80.4479 235.302 79.5729 231.865 79.1563V76.2969" fill="#FDDC66"/>
<path d="M424.948 104.698C424.948 96.3958 424.411 90.6875 423.339 87.5938C422.26 84.5 420.589 82.1511 418.312 80.5521C417.026 79.625 415.307 79.1563 413.151 79.1563C409.964 79.1563 407.349 80.474 405.323 83.1042C401.698 87.6979 399.885 93.9948 399.885 101.99V104.698H424.948ZM447.62 109.885H400.344C400.896 119.479 403.937 127.068 409.469 132.635C413.703 136.922 418.807 139.063 424.766 139.063C428.453 139.063 431.802 138.198 434.812 136.469C437.818 134.74 441.047 131.63 444.484 127.141L447.62 128.849C442.953 136.844 437.792 142.505 432.141 145.833C426.484 149.161 419.943 150.828 412.51 150.828C399.729 150.828 390.057 146.698 383.479 138.443C378.198 131.786 375.557 123.531 375.557 113.677C375.557 101.604 379.437 91.9948 387.214 84.849C394.984 77.7031 404.089 74.1302 414.536 74.1302C423.255 74.1302 430.833 77.1354 437.255 83.1458C443.672 89.1563 447.13 98.0677 447.62 109.885Z" fill="#FDDC66"/>
</g>
<defs>
<clipPath id="clip0_12_202">
<rect width="480.893" height="224.893" fill="white"/>
</clipPath>
</defs>
</svg>
