<svg aria-hidden="true" style="position: absolute; width: 0; height: 0; overflow: hidden;" version="1.1" xmlns="http://www.w3.org/2000/svg" xmlns:xlink="http://www.w3.org/1999/xlink">
<defs>

<symbol id="icon-tel" viewBox="0 0 32 32">
<path fill="" style="fill:" d="M23 0h-14c-1.654 0-3 1.346-3 3v26c0 1.654 1.346 3 3 3h14c1.654 0 3-1.346 3-3v-26c0-1.654-1.346-3-3-3zM9 2h14c0.552 0 1 0.448 1 1v21h-16v-21c0-0.552 0.448-1 1-1zM23 30h-14c-0.552 0-1-0.448-1-1v-3h16v3c0 0.552-0.448 1-1 1z"></path>
</symbol>

<symbol id="icon-email" viewBox="0 0 32 32">
<path d="M28 4h-24c-1.65 0-2.985 1.35-2.985 3l-0.015 18c0 1.65 1.35 3 3 3h24c1.65 0 3-1.35 3-3v-18c0-1.65-1.35-3-3-3zM27.4 10.375l-10.605 6.63c-0.48 0.3-1.11 0.3-1.59 0l-10.605-6.63c-0.375-0.24-0.6-0.645-0.6-1.080 0-1.005 1.095-1.605 1.95-1.080l10.050 6.285 10.050-6.285c0.855-0.525 1.95 0.075 1.95 1.080 0 0.435-0.225 0.84-0.6 1.080z"></path>
</symbol>

<symbol id="icon-location" viewBox="0 0 32 32">
<path fill="" style="" d="M16 18c-0.989 0-1.956-0.293-2.778-0.843s-1.463-1.33-1.842-2.244c-0.378-0.914-0.477-1.919-0.285-2.889s0.669-1.861 1.368-2.56c0.699-0.699 1.59-1.175 2.56-1.368s1.975-0.094 2.889 0.285c0.914 0.378 1.695 1.019 2.244 1.842s0.843 1.789 0.843 2.778c-0.002 1.326-0.529 2.596-1.466 3.534s-2.208 1.465-3.534 1.466zM16 10c-0.593 0-1.173 0.176-1.667 0.506s-0.878 0.798-1.105 1.346c-0.227 0.548-0.286 1.151-0.171 1.733s0.401 1.116 0.821 1.536 0.954 0.705 1.536 0.821c0.582 0.116 1.185 0.056 1.733-0.171s1.017-0.612 1.346-1.105 0.506-1.073 0.506-1.667c-0.001-0.795-0.317-1.558-0.88-2.12s-1.325-0.879-2.12-0.88z"></path>
<path fill="" style="" d="M16 30l-8.436-9.949c-0.117-0.149-0.233-0.3-0.348-0.451-1.441-1.898-2.22-4.217-2.216-6.6 0-2.917 1.159-5.715 3.222-7.778s4.861-3.222 7.778-3.222c2.917 0 5.715 1.159 7.778 3.222s3.222 4.861 3.222 7.778c0.003 2.382-0.775 4.7-2.215 6.597l-0.001 0.003c0 0-0.3 0.394-0.345 0.447l-8.439 9.953zM8.813 18.395c0 0 0.233 0.308 0.286 0.374l6.901 8.139 6.91-8.15c0.044-0.055 0.278-0.365 0.279-0.366 1.177-1.551 1.813-3.445 1.811-5.392 0-2.387-0.948-4.676-2.636-6.364s-3.977-2.636-6.364-2.636-4.676 0.948-6.364 2.636c-1.688 1.688-2.636 3.977-2.636 6.364-0.002 1.948 0.635 3.843 1.813 5.395z"></path>
</symbol>

<symbol id="icon-facebook" viewBox="0 0 32 32">
<path fill="#3d5a98" style="fill: var(--color1, #3d5a98)" d="M29.163 1.208h-26.323c-0.902 0-1.633 0.731-1.633 1.633v26.323c0 0.902 0.731 1.633 1.633 1.633h26.323c0.902 0 1.632-0.731 1.632-1.633v-26.323c0-0.902-0.731-1.633-1.632-1.633z"></path>
<path fill="#fff" style="fill: var(--color2, #fff)" d="M21.62 30.793v-11.457h3.845l0.575-4.465h-4.42v-2.85c0-1.293 0.36-2.175 2.213-2.175h2.365v-4c-1.145-0.119-2.296-0.176-3.447-0.17-3.405 0-5.75 2.075-5.75 5.902v3.293h-3.845v4.465h3.845v11.457h4.62z"></path>
</symbol>

<symbol id="icon-menu-hamburger" viewBox="0 0 47 32">
<path stroke-linejoin="round" stroke-linecap="round" stroke-miterlimit="4" stroke-width="4.3636" d="M1.96 29.154h42.965M1.96 15.615h42.965M1.96 2.077h42.965"></path>
</symbol>

<symbol id="icon-modal-close" viewBox="0 0 32 32">
<path d="M26.667 7.303l-1.97-1.97-7.808 7.808-7.808-7.808-1.97 1.97 7.808 7.808-7.808 7.808 1.97 1.97 7.808-7.808 7.808 7.808 1.97-1.97-7.808-7.808 7.808-7.808z"></path>
</symbol>

<symbol id="icon-logo" viewBox="0 0 66 32">
<path fill="#4d4d4d" style="fill: var(--color1, #4d4d4d)" d="M0 32h65.6v-32h-65.6v32z"></path>
<path fill="#fddc66" style="fill: var(--color2, #fddc66)" d="M1.122 31.147h63.356v-30.292h-63.356v30.292z"></path>
<path fill="#3865b0" style="fill: var(--color3, #3865b0)" d="M2.395 30.293h60.809v-28.585h-60.809v28.585z"></path>
<path fill="#221e1f" style="fill: var(--color4, #221e1f)" d="M12.119 25.226h-1.155v0.549h1.052v0.707h-1.052v1.286h-0.961v-3.25h2.116z"></path>
<path fill="#221e1f" style="fill: var(--color4, #221e1f)" d="M15.504 24.519v1.759c0 0.143 0.003 0.248 0.008 0.316 0.009 0.116 0.053 0.22 0.13 0.312 0.056 0.065 0.127 0.116 0.214 0.151s0.182 0.053 0.286 0.053c0.109 0 0.21-0.019 0.305-0.057s0.17-0.091 0.226-0.159c0.054-0.065 0.090-0.137 0.107-0.216s0.026-0.213 0.026-0.4v-1.759h0.961v1.873c0 0.199-0.018 0.365-0.054 0.5-0.056 0.216-0.19 0.411-0.401 0.585-0.298 0.249-0.698 0.373-1.201 0.373-0.237 0-0.462-0.034-0.676-0.102s-0.388-0.161-0.519-0.279c-0.135-0.119-0.231-0.259-0.287-0.422s-0.083-0.381-0.083-0.656v-1.873z"></path>
<path fill="#221e1f" style="fill: var(--color4, #221e1f)" d="M26.634 27.768v-3.249h0.961l1.766 1.987v-1.987h0.96v3.249h-0.96l-1.766-1.99v1.99z"></path>
<path fill="#221e1f" style="fill: var(--color4, #221e1f)" d="M33.096 27.768h0.96v-3.249h-0.96v3.249z"></path>
<path fill="#221e1f" style="fill: var(--color4, #221e1f)" d="M38.771 25.226v2.542h-0.96v-2.542h-0.781v-0.708h2.537v0.708z"></path>
<path fill="#221e1f" style="fill: var(--color4, #221e1f)" d="M43.192 24.519v1.759c0 0.143 0.003 0.248 0.008 0.316 0.009 0.116 0.052 0.22 0.13 0.312 0.056 0.065 0.127 0.116 0.214 0.151s0.182 0.053 0.286 0.053c0.109 0 0.21-0.019 0.305-0.057s0.17-0.091 0.226-0.159c0.054-0.065 0.089-0.137 0.107-0.216s0.026-0.213 0.026-0.4v-1.759h0.96v1.873c0 0.199-0.018 0.365-0.054 0.5-0.056 0.216-0.19 0.411-0.401 0.585-0.298 0.249-0.698 0.373-1.201 0.373-0.236 0-0.462-0.034-0.676-0.102s-0.388-0.161-0.519-0.279c-0.135-0.119-0.231-0.259-0.287-0.422s-0.084-0.381-0.084-0.656v-1.873z"></path>
<path fill="#221e1f" style="fill: var(--color4, #221e1f)" d="M49.253 25.971h0.228c0.258 0 0.443-0.037 0.556-0.111 0.053-0.035 0.097-0.080 0.132-0.135s0.052-0.108 0.052-0.159c0-0.050-0.016-0.103-0.051-0.157-0.033-0.055-0.077-0.099-0.133-0.134-0.113-0.074-0.298-0.111-0.556-0.111h-0.228v0.807zM50.465 26.435l1.481 1.333h-1.526l-1.167-1.247v1.247h-1.226v-3.249h1.906c0.29 0 0.533 0.027 0.73 0.081s0.366 0.143 0.506 0.263c0.104 0.089 0.184 0.19 0.24 0.305s0.084 0.231 0.084 0.351c0 0.133-0.034 0.261-0.1 0.384s-0.158 0.225-0.273 0.304c-0.085 0.059-0.177 0.105-0.276 0.14s-0.226 0.064-0.38 0.088z"></path>
<path fill="#221e1f" style="fill: var(--color4, #221e1f)" d="M21.91 25.971h0.228c0.258 0 0.443-0.037 0.556-0.111 0.053-0.035 0.097-0.080 0.131-0.135s0.052-0.108 0.052-0.159c0-0.050-0.017-0.103-0.050-0.157s-0.077-0.099-0.133-0.134c-0.113-0.074-0.298-0.111-0.556-0.111h-0.228v0.807zM23.121 26.435l1.482 1.333h-1.526l-1.167-1.247v1.247h-1.226v-3.249h1.906c0.29 0 0.534 0.027 0.73 0.081s0.366 0.143 0.506 0.263c0.104 0.089 0.184 0.19 0.24 0.305s0.085 0.231 0.085 0.351c0 0.133-0.033 0.261-0.1 0.384s-0.158 0.225-0.273 0.304c-0.085 0.059-0.177 0.105-0.276 0.14s-0.225 0.064-0.38 0.088z"></path>
<path fill="#221e1f" style="fill: var(--color4, #221e1f)" d="M56.168 25.226h-1.142v0.549h1.079v0.707h-1.079v0.579h1.142v0.707h-2.102v-3.25h2.102z"></path>
<path fill="#fff" style="fill: var(--color5, #fff)" d="M12.119 24.847h-1.155v0.549h1.052v0.707h-1.052v1.286h-0.961v-3.25h2.116z"></path>
<path fill="#fff" style="fill: var(--color5, #fff)" d="M15.504 24.14v1.759c0 0.143 0.003 0.248 0.008 0.316 0.009 0.116 0.053 0.22 0.13 0.312 0.056 0.065 0.127 0.116 0.214 0.151s0.182 0.053 0.286 0.053c0.109 0 0.21-0.019 0.305-0.057s0.17-0.091 0.226-0.159c0.054-0.065 0.090-0.137 0.107-0.216s0.026-0.213 0.026-0.4v-1.759h0.961v1.873c0 0.199-0.018 0.365-0.054 0.5-0.056 0.216-0.19 0.411-0.401 0.585-0.298 0.249-0.698 0.374-1.201 0.374-0.237 0-0.462-0.034-0.676-0.102s-0.388-0.161-0.519-0.279c-0.135-0.119-0.231-0.259-0.287-0.422s-0.083-0.381-0.083-0.656v-1.873z"></path>
<path fill="#fff" style="fill: var(--color5, #fff)" d="M26.634 27.389v-3.249h0.961l1.766 1.987v-1.987h0.96v3.249h-0.96l-1.766-1.99v1.99z"></path>
<path fill="#fff" style="fill: var(--color5, #fff)" d="M33.096 27.389h0.96v-3.249h-0.96v3.249z"></path>
<path fill="#fff" style="fill: var(--color5, #fff)" d="M38.771 24.847v2.542h-0.96v-2.542h-0.781v-0.708h2.537v0.708z"></path>
<path fill="#fff" style="fill: var(--color5, #fff)" d="M43.192 24.14v1.759c0 0.143 0.003 0.248 0.008 0.316 0.009 0.116 0.052 0.22 0.13 0.312 0.056 0.065 0.127 0.116 0.214 0.151s0.182 0.053 0.286 0.053c0.109 0 0.21-0.019 0.305-0.057s0.17-0.091 0.226-0.159c0.054-0.065 0.089-0.137 0.107-0.216s0.026-0.213 0.026-0.4v-1.759h0.96v1.873c0 0.199-0.018 0.365-0.054 0.5-0.056 0.216-0.19 0.411-0.401 0.585-0.298 0.249-0.698 0.374-1.201 0.374-0.236 0-0.462-0.034-0.676-0.102s-0.388-0.161-0.519-0.279c-0.135-0.119-0.231-0.259-0.287-0.422s-0.084-0.381-0.084-0.656v-1.873z"></path>
<path fill="#fff" style="fill: var(--color5, #fff)" d="M49.253 25.591h0.228c0.258 0 0.443-0.037 0.556-0.111 0.053-0.035 0.097-0.080 0.132-0.135s0.052-0.108 0.052-0.159-0.016-0.103-0.051-0.157c-0.033-0.055-0.077-0.099-0.133-0.134-0.113-0.074-0.298-0.111-0.556-0.111h-0.228v0.807zM50.465 26.055l1.481 1.333h-1.526l-1.167-1.247v1.247h-1.226v-3.249h1.906c0.29 0 0.533 0.027 0.73 0.082s0.366 0.143 0.506 0.263c0.104 0.089 0.184 0.19 0.24 0.305s0.084 0.231 0.084 0.351c0 0.133-0.034 0.261-0.1 0.384s-0.158 0.225-0.273 0.304c-0.085 0.059-0.177 0.105-0.276 0.14s-0.226 0.064-0.38 0.088z"></path>
<path fill="#fff" style="fill: var(--color5, #fff)" d="M21.91 25.591h0.228c0.258 0 0.443-0.037 0.556-0.111 0.053-0.035 0.097-0.080 0.131-0.135s0.052-0.108 0.052-0.159-0.017-0.103-0.050-0.157c-0.033-0.055-0.077-0.099-0.133-0.134-0.113-0.074-0.298-0.111-0.556-0.111h-0.228v0.807zM23.121 26.055l1.482 1.333h-1.526l-1.167-1.247v1.247h-1.226v-3.249h1.906c0.29 0 0.534 0.027 0.73 0.082s0.366 0.143 0.506 0.263c0.104 0.089 0.184 0.19 0.24 0.305s0.085 0.231 0.085 0.351c0 0.133-0.033 0.261-0.1 0.384s-0.158 0.225-0.273 0.304c-0.085 0.059-0.177 0.105-0.276 0.14s-0.225 0.064-0.38 0.088z"></path>
<path fill="#fff" style="fill: var(--color5, #fff)" d="M56.168 24.847h-1.142v0.549h1.079v0.707h-1.079v0.579h1.142v0.707h-2.102v-3.25h2.102z"></path>
<path fill="#fddc66" style="fill: var(--color2, #fddc66)" d="M12.494 7.971l1.909 6.564h0.073l1.909-6.564h2.855l-3.073 9.309h-3.455l-3.073-9.309h2.855zM21.965 17.28v-6.982h2.509v6.982h-2.509zM23.219 9.571c-0.339 0-0.63-0.112-0.873-0.336s-0.364-0.494-0.364-0.809c0-0.315 0.121-0.585 0.364-0.809s0.533-0.336 0.873-0.336c0.342 0 0.633 0.112 0.873 0.336 0.242 0.224 0.364 0.494 0.364 0.809s-0.121 0.585-0.364 0.809c-0.239 0.224-0.53 0.336-0.873 0.336zM31.708 10.298v1.818h-4.6v-1.818h4.6zM27.999 8.625h2.509v6.409c0 0.097 0.017 0.179 0.050 0.245 0.033 0.064 0.085 0.112 0.155 0.145 0.070 0.030 0.159 0.045 0.268 0.045 0.076 0 0.164-0.009 0.264-0.027 0.103-0.018 0.179-0.033 0.227-0.045l0.364 1.764c-0.112 0.033-0.273 0.074-0.482 0.123-0.206 0.048-0.452 0.080-0.736 0.095-0.576 0.030-1.059-0.029-1.45-0.177-0.391-0.152-0.685-0.389-0.882-0.714s-0.292-0.73-0.286-1.218v-6.645zM36.469 17.389c-0.445 0-0.839-0.073-1.182-0.218-0.34-0.148-0.606-0.373-0.8-0.673s-0.291-0.682-0.291-1.145c0-0.382 0.065-0.708 0.195-0.977 0.131-0.273 0.312-0.495 0.546-0.668s0.505-0.305 0.814-0.395c0.312-0.091 0.648-0.15 1.009-0.177 0.391-0.030 0.705-0.067 0.941-0.109 0.239-0.045 0.412-0.108 0.518-0.186 0.106-0.082 0.159-0.189 0.159-0.323v-0.018c0-0.182-0.070-0.321-0.209-0.418s-0.318-0.145-0.536-0.145c-0.239 0-0.435 0.053-0.586 0.159-0.148 0.103-0.238 0.262-0.268 0.477h-2.309c0.030-0.424 0.165-0.815 0.404-1.173 0.243-0.361 0.596-0.648 1.059-0.864 0.464-0.218 1.042-0.327 1.736-0.327 0.5 0 0.948 0.059 1.345 0.177 0.397 0.115 0.735 0.277 1.014 0.486 0.279 0.206 0.491 0.448 0.636 0.727 0.148 0.276 0.223 0.576 0.223 0.9v4.782h-2.346v-0.982h-0.054c-0.14 0.261-0.309 0.471-0.509 0.632-0.197 0.161-0.423 0.277-0.677 0.35-0.252 0.073-0.529 0.109-0.832 0.109zM37.287 15.807c0.191 0 0.37-0.039 0.536-0.118 0.17-0.079 0.308-0.192 0.413-0.341s0.159-0.329 0.159-0.541v-0.582c-0.067 0.027-0.138 0.053-0.214 0.077-0.073 0.024-0.152 0.047-0.236 0.068-0.082 0.021-0.17 0.041-0.264 0.059-0.091 0.018-0.186 0.035-0.286 0.050-0.194 0.030-0.353 0.080-0.477 0.15-0.121 0.067-0.212 0.15-0.273 0.25-0.058 0.097-0.086 0.206-0.086 0.327 0 0.194 0.068 0.342 0.204 0.445s0.311 0.155 0.523 0.155zM46.387 7.971v9.309h-2.509v-9.309h2.509zM50.985 19.898c-0.288 0-0.562-0.023-0.823-0.068-0.261-0.042-0.49-0.102-0.686-0.177l0.545-1.782c0.206 0.073 0.394 0.12 0.564 0.141 0.173 0.021 0.32 0.009 0.441-0.036 0.124-0.045 0.213-0.132 0.268-0.259l0.054-0.127-2.454-7.291h2.618l1.127 4.836h0.073l1.146-4.836h2.636l-2.546 7.564c-0.127 0.385-0.312 0.73-0.555 1.036-0.239 0.309-0.555 0.553-0.945 0.732s-0.879 0.268-1.464 0.268z"></path>
</symbol>
</defs>
</svg>
