<svg aria-hidden="true" style="position: absolute; width: 0; height: 0; overflow: hidden;" version="1.1" xmlns="http://www.w3.org/2000/svg" xmlns:xlink="http://www.w3.org/1999/xlink">
<defs>
<symbol id="icon-tel" viewBox="0 0 32 32">
<path fill="" style="fill:" d="M23 0h-14c-1.654 0-3 1.346-3 3v26c0 1.654 1.346 3 3 3h14c1.654 0 3-1.346 3-3v-26c0-1.654-1.346-3-3-3zM9 2h14c0.552 0 1 0.448 1 1v21h-16v-21c0-0.552 0.448-1 1-1zM23 30h-14c-0.552 0-1-0.448-1-1v-3h16v3c0 0.552-0.448 1-1 1z"></path>
</symbol>
<symbol id="icon-email" viewBox="0 0 32 32">
<path d="M28 4h-24c-1.65 0-2.985 1.35-2.985 3l-0.015 18c0 1.65 1.35 3 3 3h24c1.65 0 3-1.35 3-3v-18c0-1.65-1.35-3-3-3zM27.4 10.375l-10.605 6.63c-0.48 0.3-1.11 0.3-1.59 0l-10.605-6.63c-0.375-0.24-0.6-0.645-0.6-1.080 0-1.005 1.095-1.605 1.95-1.080l10.050 6.285 10.050-6.285c0.855-0.525 1.95 0.075 1.95 1.080 0 0.435-0.225 0.84-0.6 1.080z"></path>
</symbol>
<symbol id="icon-location" viewBox="0 0 32 32">
<path fill="" style="" d="M16 18c-0.989 0-1.956-0.293-2.778-0.843s-1.463-1.33-1.842-2.244c-0.378-0.914-0.477-1.919-0.285-2.889s0.669-1.861 1.368-2.56c0.699-0.699 1.59-1.175 2.56-1.368s1.975-0.094 2.889 0.285c0.914 0.378 1.695 1.019 2.244 1.842s0.843 1.789 0.843 2.778c-0.002 1.326-0.529 2.596-1.466 3.534s-2.208 1.465-3.534 1.466zM16 10c-0.593 0-1.173 0.176-1.667 0.506s-0.878 0.798-1.105 1.346c-0.227 0.548-0.286 1.151-0.171 1.733s0.401 1.116 0.821 1.536 0.954 0.705 1.536 0.821c0.582 0.116 1.185 0.056 1.733-0.171s1.017-0.612 1.346-1.105 0.506-1.073 0.506-1.667c-0.001-0.795-0.317-1.558-0.88-2.12s-1.325-0.879-2.12-0.88z"></path>
<path fill="" style="" d="M16 30l-8.436-9.949c-0.117-0.149-0.233-0.3-0.348-0.451-1.441-1.898-2.22-4.217-2.216-6.6 0-2.917 1.159-5.715 3.222-7.778s4.861-3.222 7.778-3.222c2.917 0 5.715 1.159 7.778 3.222s3.222 4.861 3.222 7.778c0.003 2.382-0.775 4.7-2.215 6.597l-0.001 0.003c0 0-0.3 0.394-0.345 0.447l-8.439 9.953zM8.813 18.395c0 0 0.233 0.308 0.286 0.374l6.901 8.139 6.91-8.15c0.044-0.055 0.278-0.365 0.279-0.366 1.177-1.551 1.813-3.445 1.811-5.392 0-2.387-0.948-4.676-2.636-6.364s-3.977-2.636-6.364-2.636-4.676 0.948-6.364 2.636c-1.688 1.688-2.636 3.977-2.636 6.364-0.002 1.948 0.635 3.843 1.813 5.395z"></path>
</symbol>
<symbol id="icon-facebook" viewBox="0 0 32 32">
<path fill="#3d5a98" style="fill: var(--color1, #3d5a98)" d="M29.163 1.208h-26.323c-0.902 0-1.633 0.731-1.633 1.633v26.323c0 0.902 0.731 1.633 1.633 1.633h26.323c0.902 0 1.632-0.731 1.632-1.633v-26.323c0-0.902-0.731-1.633-1.632-1.633z"></path>
<path fill="#fff" style="fill: var(--color2, #fff)" d="M21.62 30.793v-11.457h3.845l0.575-4.465h-4.42v-2.85c0-1.293 0.36-2.175 2.213-2.175h2.365v-4c-1.145-0.119-2.296-0.176-3.447-0.17-3.405 0-5.75 2.075-5.75 5.902v3.293h-3.845v4.465h3.845v11.457h4.62z"></path>
</symbol>
<symbol id="icon-youtube" viewBox="0 0 32 32">
<path fill="#ea5a47" style="fill: var(--color3, #ea5a47)" d="M28.388 9.736c-0.146-0.55-0.434-1.052-0.835-1.456s-0.902-0.695-1.451-0.845c-2.017-0.544-10.102-0.544-10.102-0.544s-8.086 0-10.102 0.544c-0.549 0.15-1.050 0.441-1.451 0.845s-0.689 0.906-0.835 1.456c-0.54 2.029-0.54 6.264-0.54 6.264s0 4.235 0.54 6.264c0.146 0.55 0.434 1.052 0.835 1.456s0.902 0.695 1.451 0.845c2.016 0.544 10.102 0.544 10.102 0.544s8.086 0 10.102-0.544c0.549-0.15 1.049-0.441 1.451-0.845s0.689-0.906 0.835-1.456c0.541-2.030 0.541-6.264 0.541-6.264s0-4.235-0.541-6.264z"></path>
<path fill="#fff" style="fill: var(--color2, #fff)" d="M13.356 19.844l6.758-3.844-6.758-3.844v7.689z"></path>
<path fill="none" stroke="#000" style="stroke: var(--color4, #000)" stroke-linejoin="miter" stroke-linecap="butt" stroke-miterlimit="10" stroke-width="0.8889" d="M28.388 9.736c-0.146-0.55-0.434-1.052-0.835-1.456s-0.902-0.695-1.451-0.845c-2.017-0.544-10.102-0.544-10.102-0.544s-8.086 0-10.102 0.544c-0.549 0.15-1.050 0.441-1.451 0.845s-0.689 0.906-0.835 1.456c-0.54 2.029-0.54 6.264-0.54 6.264s0 4.235 0.54 6.264c0.146 0.55 0.434 1.052 0.835 1.456s0.902 0.695 1.451 0.845c2.016 0.544 10.102 0.544 10.102 0.544s8.086 0 10.102-0.544c0.549-0.15 1.049-0.441 1.451-0.845s0.689-0.906 0.835-1.456c0.541-2.030 0.541-6.264 0.541-6.264s0-4.235-0.541-6.264z"></path>
<path fill="none" stroke="#000" style="stroke: var(--color4, #000)" stroke-linejoin="round" stroke-linecap="round" stroke-miterlimit="10" stroke-width="0.8889" d="M13.356 19.844l6.758-3.844-6.758-3.844v7.689z"></path>
</symbol>
<symbol id="icon-instagram" viewBox="0 0 32 32">
<path fill="#000" style="fill: var(--color4, #000)" d="M24.5 0h-17c-4.142 0-7.5 3.358-7.5 7.5v17c0 4.142 3.358 7.5 7.5 7.5h17c4.142 0 7.5-3.358 7.5-7.5v-17c0-4.142-3.358-7.5-7.5-7.5z"></path>
<path fill="#000" style="fill: var(--color4, #000)" d="M24.5 0h-17c-4.142 0-7.5 3.358-7.5 7.5v17c0 4.142 3.358 7.5 7.5 7.5h17c4.142 0 7.5-3.358 7.5-7.5v-17c0-4.142-3.358-7.5-7.5-7.5z"></path>
<path fill="#fff" style="fill: var(--color2, #fff)" d="M16.001 3.5c-3.395 0-3.821 0.015-5.154 0.075-1.331 0.061-2.239 0.272-3.034 0.581-0.822 0.319-1.52 0.746-2.214 1.441s-1.123 1.392-1.443 2.214c-0.31 0.795-0.521 1.704-0.581 3.034-0.060 1.333-0.075 1.76-0.075 5.155s0.015 3.82 0.075 5.153c0.061 1.331 0.272 2.239 0.581 3.034 0.319 0.822 0.747 1.52 1.442 2.214s1.392 1.124 2.214 1.443c0.795 0.309 1.704 0.52 3.034 0.581 1.333 0.061 1.759 0.075 5.154 0.075s3.82-0.015 5.153-0.075c1.331-0.061 2.24-0.272 3.035-0.581 0.822-0.319 1.518-0.747 2.213-1.443 0.695-0.695 1.122-1.392 1.443-2.214 0.307-0.795 0.518-1.704 0.581-3.034 0.060-1.333 0.075-1.758 0.075-5.153s-0.016-3.821-0.075-5.154c-0.063-1.331-0.274-2.239-0.581-3.034-0.32-0.822-0.747-1.52-1.443-2.215s-1.391-1.122-2.213-1.441c-0.797-0.309-1.706-0.52-3.037-0.581-1.333-0.061-1.758-0.075-5.154-0.075h0.004zM14.88 5.753c0.333-0 0.704 0 1.121 0 3.338 0 3.733 0.012 5.051 0.072 1.219 0.056 1.88 0.259 2.321 0.431 0.583 0.226 0.999 0.497 1.437 0.935s0.708 0.854 0.935 1.438c0.171 0.44 0.375 1.101 0.43 2.32 0.060 1.318 0.073 1.713 0.073 5.049s-0.013 3.732-0.073 5.050c-0.056 1.219-0.259 1.88-0.43 2.32-0.227 0.583-0.498 0.999-0.935 1.436s-0.853 0.708-1.437 0.935c-0.44 0.172-1.102 0.375-2.321 0.431-1.318 0.060-1.713 0.073-5.051 0.073s-3.733-0.013-5.051-0.073c-1.219-0.056-1.88-0.26-2.321-0.431-0.583-0.227-1-0.497-1.438-0.935s-0.708-0.853-0.935-1.437c-0.171-0.44-0.375-1.102-0.431-2.32-0.060-1.318-0.072-1.713-0.072-5.052s0.012-3.732 0.072-5.050c0.056-1.219 0.259-1.88 0.431-2.321 0.227-0.583 0.498-1 0.936-1.438s0.854-0.708 1.438-0.935c0.441-0.172 1.102-0.375 2.321-0.431 1.153-0.052 1.6-0.068 3.93-0.070v0.003zM22.674 7.828c-0.828 0-1.5 0.671-1.5 1.499s0.672 1.5 1.5 1.5 1.5-0.672 1.5-1.5c0-0.828-0.672-1.5-1.5-1.5v0zM16.001 9.581c-3.545 0-6.419 2.874-6.419 6.419s2.874 6.418 6.419 6.418c3.545 0 6.418-2.873 6.418-6.418s-2.873-6.419-6.419-6.419h0zM16.001 11.833c2.301 0 4.167 1.865 4.167 4.167s-1.866 4.167-4.167 4.167-4.167-1.866-4.167-4.167c0-2.301 1.865-4.167 4.167-4.167z"></path>
</symbol>
<symbol id="icon-tiktok" viewBox="0 0 32 32">
<path d="M29.091 0h-26.182c-1.607 0-2.909 1.302-2.909 2.909v26.182c0 1.607 1.302 2.909 2.909 2.909h26.182c1.607 0 2.909-1.302 2.909-2.909v-26.182c0-1.607-1.303-2.909-2.909-2.909zM27.184 13.78c-0.189 0.017-0.38 0.029-0.572 0.029-2.175 0-4.086-1.117-5.199-2.809 0 4.435 0 9.482 0 9.567 0 3.905-3.167 7.071-7.071 7.071-3.904-0.001-7.071-3.168-7.071-7.072 0-3.905 3.167-7.071 7.071-7.071 0.148 0 0.292 0.013 0.436 0.022v3.485c-0.145-0.017-0.287-0.044-0.436-0.044-1.993 0-3.609 1.616-3.609 3.609s1.615 3.609 3.609 3.609c1.994 0 3.754-1.571 3.754-3.564 0-0.080 0.035-16.247 0.035-16.247h3.329c0.313 2.977 2.717 5.328 5.722 5.543v3.872z"></path>
</symbol>
<symbol id="icon-tiktok-thin" viewBox="0 0 32 32">
<path fill="#d9d9d9" style="fill: var(--color1, #d9d9d9)" d="M28 9.5c-1.723-0.002-3.375-0.687-4.594-1.906s-1.904-2.871-1.906-4.594c0-0.133-0.053-0.26-0.146-0.354s-0.221-0.146-0.354-0.146h-5c-0.133 0-0.26 0.053-0.354 0.146s-0.146 0.221-0.146 0.354v16.5c-0 0.537-0.144 1.064-0.417 1.526s-0.665 0.843-1.136 1.101c-0.47 0.259-1.001 0.387-1.538 0.371s-1.059-0.176-1.513-0.463-0.822-0.691-1.067-1.169c-0.245-0.478-0.356-1.013-0.324-1.549s0.208-1.053 0.509-1.498c0.301-0.445 0.715-0.801 1.2-1.031 0.085-0.041 0.158-0.105 0.208-0.185s0.077-0.173 0.077-0.268v-5.336c0-0.073-0.016-0.145-0.047-0.212s-0.076-0.125-0.132-0.172c-0.056-0.047-0.122-0.081-0.192-0.1s-0.145-0.022-0.216-0.009c-4.226 0.752-7.412 4.618-7.412 8.992 0 2.387 0.948 4.676 2.636 6.364s3.977 2.636 6.364 2.636 4.676-0.948 6.364-2.636c1.688-1.688 2.636-3.977 2.636-6.364v-5.82c1.957 1.196 4.207 1.826 6.5 1.82 0.133 0 0.26-0.053 0.354-0.146s0.146-0.221 0.146-0.354v-5c0-0.133-0.053-0.26-0.146-0.354s-0.221-0.146-0.354-0.146zM27.5 14.49c-2.235-0.092-4.393-0.839-6.207-2.147-0.075-0.054-0.163-0.086-0.255-0.093s-0.184 0.012-0.266 0.054c-0.082 0.042-0.151 0.106-0.199 0.185s-0.073 0.169-0.073 0.262v6.75c0 2.122-0.843 4.157-2.343 5.657s-3.535 2.343-5.657 2.343-4.157-0.843-5.657-2.343c-1.5-1.5-2.343-3.535-2.343-5.657 0-3.69 2.54-6.974 6-7.875v4.414c-0.608 0.351-1.113 0.856-1.464 1.464s-0.536 1.298-0.536 2 0.185 1.392 0.536 2c0.351 0.608 0.857 1.113 1.465 1.464s1.298 0.536 2.001 0.535c0.702-0 1.392-0.185 2-0.537s1.113-0.857 1.463-1.465c0.351-0.608 0.535-1.298 0.535-2.001v-16h4.016c0.124 1.811 0.899 3.517 2.183 4.801s2.989 2.059 4.801 2.183v4.006z"></path>
</symbol>
<symbol id="icon-menu-hamburger" viewBox="0 0 47 32">
<path stroke-linejoin="round" stroke-linecap="round" stroke-miterlimit="4" stroke-width="4.3636" d="M1.96 29.154h42.965M1.96 15.615h42.965M1.96 2.077h42.965"></path>
</symbol>
<symbol id="icon-modal-close" viewBox="0 0 32 32">
<path d="M26.667 7.303l-1.97-1.97-7.808 7.808-7.808-7.808-1.97 1.97 7.808 7.808-7.808 7.808 1.97 1.97 7.808-7.808 7.808 7.808 1.97-1.97-7.808-7.808 7.808-7.808z"></path>
</symbol>
<symbol id="icon-logo" viewBox="0 0 68 32">
<path fill="#221e1f" style="fill: var(--color1, #221e1f)" d="M0 31.985h68.393v-31.984h-68.393v31.984z"></path>
<path fill="#fddc66" style="fill: var(--color2, #fddc66)" d="M1.17 31.132h66.054v-30.278h-66.054v30.278z"></path>
<path fill="#3865b0" style="fill: var(--color3, #3865b0)" d="M2.497 30.279h63.399v-28.571h-63.399v28.571z"></path>
<path fill="#221e1f" style="fill: var(--color1, #221e1f)" d="M12.636 25.214h-1.204v0.549h1.097v0.707h-1.097v1.285h-1.002v-3.248h2.206z"></path>
<path fill="#221e1f" style="fill: var(--color1, #221e1f)" d="M16.164 24.507v1.758c0 0.143 0.003 0.248 0.008 0.316 0.010 0.116 0.055 0.22 0.136 0.312 0.058 0.065 0.133 0.116 0.223 0.151s0.19 0.053 0.299 0.053c0.113 0 0.219-0.018 0.318-0.057s0.177-0.091 0.236-0.159c0.056-0.065 0.093-0.137 0.111-0.216s0.027-0.213 0.027-0.4v-1.758h1.001v1.872c0 0.199-0.019 0.365-0.056 0.5-0.059 0.215-0.198 0.41-0.418 0.585-0.31 0.249-0.727 0.373-1.252 0.373-0.247 0-0.481-0.034-0.705-0.102s-0.404-0.161-0.542-0.279c-0.141-0.118-0.241-0.259-0.299-0.422s-0.087-0.381-0.087-0.656v-1.872z"></path>
<path fill="#221e1f" style="fill: var(--color1, #221e1f)" d="M27.768 27.755v-3.247h1.001l1.841 1.986v-1.986h1.001v3.247h-1.001l-1.841-1.989v1.989z"></path>
<path fill="#221e1f" style="fill: var(--color1, #221e1f)" d="M34.505 27.755h1.001v-3.247h-1.001v3.247z"></path>
<path fill="#221e1f" style="fill: var(--color1, #221e1f)" d="M40.422 25.214v2.541h-1.001v-2.541h-0.815v-0.707h2.645v0.707z"></path>
<path fill="#221e1f" style="fill: var(--color1, #221e1f)" d="M45.032 24.507v1.758c0 0.143 0.003 0.248 0.008 0.316 0.010 0.116 0.055 0.22 0.136 0.312 0.058 0.065 0.133 0.116 0.223 0.151s0.19 0.053 0.299 0.053c0.113 0 0.219-0.018 0.318-0.057s0.177-0.091 0.236-0.159c0.056-0.065 0.093-0.137 0.111-0.216s0.027-0.213 0.027-0.4v-1.758h1.001v1.872c0 0.199-0.019 0.365-0.056 0.5-0.058 0.215-0.198 0.41-0.418 0.585-0.31 0.249-0.727 0.373-1.252 0.373-0.247 0-0.482-0.034-0.705-0.102s-0.404-0.161-0.542-0.279c-0.141-0.118-0.241-0.259-0.299-0.422s-0.087-0.381-0.087-0.656v-1.872z"></path>
<path fill="#221e1f" style="fill: var(--color1, #221e1f)" d="M51.35 25.959h0.238c0.269 0 0.462-0.037 0.579-0.111 0.056-0.035 0.101-0.080 0.137-0.135s0.054-0.108 0.054-0.159-0.017-0.103-0.053-0.157c-0.034-0.055-0.081-0.099-0.139-0.134-0.118-0.074-0.31-0.111-0.579-0.111h-0.238v0.807zM52.614 26.422l1.544 1.333h-1.591l-1.217-1.247v1.247h-1.278v-3.247h1.987c0.302 0 0.556 0.027 0.761 0.081s0.381 0.143 0.527 0.263c0.108 0.089 0.192 0.19 0.25 0.304s0.088 0.231 0.088 0.35c0 0.133-0.035 0.261-0.104 0.384s-0.164 0.224-0.284 0.304c-0.089 0.059-0.184 0.105-0.287 0.14s-0.236 0.065-0.396 0.088z"></path>
<path fill="#221e1f" style="fill: var(--color1, #221e1f)" d="M22.843 25.959h0.238c0.269 0 0.462-0.037 0.579-0.111 0.056-0.035 0.101-0.080 0.137-0.135s0.054-0.108 0.054-0.159-0.018-0.103-0.053-0.157c-0.035-0.055-0.081-0.099-0.139-0.134-0.118-0.074-0.31-0.111-0.579-0.111h-0.238v0.807zM24.106 26.422l1.545 1.333h-1.591l-1.217-1.247v1.247h-1.278v-3.247h1.987c0.302 0 0.556 0.027 0.761 0.081s0.381 0.143 0.527 0.263c0.108 0.089 0.192 0.19 0.25 0.304s0.088 0.231 0.088 0.35c0 0.133-0.035 0.261-0.105 0.384s-0.164 0.224-0.284 0.304c-0.089 0.059-0.184 0.105-0.288 0.14s-0.235 0.065-0.396 0.088z"></path>
<path fill="#221e1f" style="fill: var(--color1, #221e1f)" d="M58.56 25.214h-1.19v0.549h1.125v0.707h-1.125v0.578h1.19v0.707h-2.192v-3.248h2.192z"></path>
<path fill="#fff" style="fill: var(--color4, #fff)" d="M12.636 24.835h-1.204v0.549h1.097v0.707h-1.097v1.285h-1.002v-3.248h2.206z"></path>
<path fill="#fff" style="fill: var(--color4, #fff)" d="M16.164 24.128v1.758c0 0.143 0.003 0.248 0.008 0.316 0.010 0.116 0.055 0.22 0.136 0.312 0.058 0.065 0.133 0.116 0.223 0.151s0.19 0.053 0.299 0.053c0.113 0 0.219-0.019 0.318-0.057s0.177-0.091 0.236-0.159c0.056-0.065 0.093-0.137 0.111-0.216s0.027-0.213 0.027-0.4v-1.758h1.001v1.872c0 0.198-0.019 0.365-0.056 0.5-0.059 0.216-0.198 0.41-0.418 0.585-0.31 0.249-0.727 0.373-1.252 0.373-0.247 0-0.481-0.034-0.705-0.102s-0.404-0.161-0.542-0.278c-0.141-0.119-0.241-0.259-0.299-0.422s-0.087-0.381-0.087-0.655v-1.872z"></path>
<path fill="#fff" style="fill: var(--color4, #fff)" d="M27.768 27.375v-3.247h1.001l1.841 1.986v-1.986h1.001v3.247h-1.001l-1.841-1.989v1.989z"></path>
<path fill="#fff" style="fill: var(--color4, #fff)" d="M34.505 27.375h1.001v-3.247h-1.001v3.247z"></path>
<path fill="#fff" style="fill: var(--color4, #fff)" d="M40.422 24.835v2.541h-1.001v-2.541h-0.815v-0.707h2.645v0.707z"></path>
<path fill="#fff" style="fill: var(--color4, #fff)" d="M45.032 24.128v1.758c0 0.143 0.003 0.248 0.008 0.316 0.010 0.116 0.055 0.22 0.136 0.312 0.058 0.065 0.133 0.116 0.223 0.151s0.19 0.053 0.299 0.053c0.113 0 0.219-0.019 0.318-0.057s0.177-0.091 0.236-0.159c0.056-0.065 0.093-0.137 0.111-0.216s0.027-0.213 0.027-0.4v-1.758h1.001v1.872c0 0.198-0.019 0.365-0.056 0.5-0.058 0.216-0.198 0.41-0.418 0.585-0.31 0.249-0.727 0.373-1.252 0.373-0.247 0-0.482-0.034-0.705-0.102s-0.404-0.161-0.542-0.278c-0.141-0.119-0.241-0.259-0.299-0.422s-0.087-0.381-0.087-0.655v-1.872z"></path>
<path fill="#fff" style="fill: var(--color4, #fff)" d="M51.35 25.579h0.238c0.269 0 0.462-0.037 0.579-0.111 0.056-0.035 0.101-0.080 0.137-0.135s0.054-0.108 0.054-0.159c0-0.050-0.017-0.103-0.053-0.157-0.034-0.055-0.081-0.099-0.139-0.134-0.118-0.074-0.31-0.111-0.579-0.111h-0.238v0.807zM52.614 26.043l1.544 1.332h-1.591l-1.217-1.247v1.247h-1.278v-3.247h1.987c0.302 0 0.556 0.027 0.761 0.081s0.381 0.143 0.527 0.263c0.108 0.089 0.192 0.19 0.25 0.305s0.088 0.231 0.088 0.35c0 0.133-0.035 0.261-0.104 0.384s-0.164 0.224-0.284 0.304c-0.089 0.059-0.184 0.105-0.287 0.14s-0.236 0.064-0.396 0.088z"></path>
<path fill="#fff" style="fill: var(--color4, #fff)" d="M22.843 25.579h0.238c0.269 0 0.462-0.037 0.579-0.111 0.056-0.035 0.101-0.080 0.137-0.135s0.054-0.108 0.054-0.159c0-0.050-0.018-0.103-0.053-0.157s-0.081-0.099-0.139-0.134c-0.118-0.074-0.31-0.111-0.579-0.111h-0.238v0.807zM24.106 26.043l1.545 1.332h-1.591l-1.217-1.247v1.247h-1.278v-3.247h1.987c0.302 0 0.556 0.027 0.761 0.081s0.381 0.143 0.527 0.263c0.108 0.089 0.192 0.19 0.25 0.305s0.088 0.231 0.088 0.35c0 0.133-0.035 0.261-0.105 0.384s-0.164 0.224-0.284 0.304c-0.089 0.059-0.184 0.105-0.288 0.14s-0.235 0.064-0.396 0.088z"></path>
<path fill="#fff" style="fill: var(--color4, #fff)" d="M58.56 24.835h-1.19v0.549h1.125v0.707h-1.125v0.579h1.19v0.707h-2.192v-3.248h2.192z"></path>
<path fill="#221e1f" style="fill: var(--color1, #221e1f)" d="M18.474 5.521h-1.204v0.651h1.097v0.838h-1.097v1.523h-1.001v-3.85h2.205z"></path>
<path fill="#221e1f" style="fill: var(--color1, #221e1f)" d="M23.575 7.098l-0.481-1.224-0.495 1.224h0.976zM23.875 7.862h-1.585l-0.272 0.671h-1.182l1.656-3.85h1.221l1.621 3.85h-1.195z"></path>
<path fill="#221e1f" style="fill: var(--color1, #221e1f)" d="M44.691 5.521h-1.472v0.651h1.392v0.838h-1.392v0.685h1.472v0.838h-2.71v-3.85h2.71z"></path>
<path fill="#221e1f" style="fill: var(--color1, #221e1f)" d="M29.246 6.404h0.238c0.27 0 0.464-0.044 0.582-0.132 0.055-0.041 0.101-0.094 0.137-0.16s0.054-0.127 0.054-0.187-0.017-0.121-0.053-0.187c-0.035-0.064-0.081-0.117-0.139-0.158-0.118-0.088-0.313-0.132-0.582-0.132h-0.238v0.956zM30.514 6.954l1.551 1.579h-1.598l-1.222-1.478v1.478h-1.283v-3.85h1.995c0.304 0 0.558 0.033 0.764 0.097s0.382 0.169 0.53 0.312c0.108 0.105 0.192 0.226 0.251 0.361s0.088 0.274 0.088 0.415c0 0.158-0.035 0.31-0.104 0.456s-0.165 0.265-0.285 0.359c-0.090 0.070-0.186 0.125-0.29 0.167s-0.236 0.076-0.398 0.104z"></path>
<path fill="#221e1f" style="fill: var(--color1, #221e1f)" d="M48.778 6.404h0.239c0.27 0 0.464-0.044 0.582-0.132 0.055-0.041 0.101-0.094 0.137-0.16s0.054-0.127 0.054-0.187-0.017-0.121-0.052-0.187c-0.035-0.064-0.081-0.117-0.139-0.158-0.119-0.088-0.313-0.132-0.582-0.132h-0.239v0.956zM50.046 6.954l1.551 1.579h-1.598l-1.221-1.478v1.478h-1.283v-3.85h1.995c0.304 0 0.559 0.033 0.764 0.097s0.382 0.169 0.53 0.312c0.108 0.105 0.192 0.226 0.251 0.361s0.088 0.274 0.088 0.415c0 0.158-0.035 0.31-0.104 0.456s-0.165 0.265-0.285 0.359c-0.090 0.070-0.186 0.125-0.29 0.167s-0.236 0.076-0.398 0.104z"></path>
<path fill="#221e1f" style="fill: var(--color1, #221e1f)" d="M56.276 4.904l-0.4 0.779c-0.218-0.17-0.438-0.254-0.66-0.254-0.141 0-0.251 0.038-0.33 0.116-0.067 0.067-0.101 0.138-0.101 0.215 0 0.101 0.063 0.189 0.189 0.263 0.042 0.024 0.085 0.044 0.13 0.059s0.171 0.053 0.378 0.116c0.193 0.056 0.347 0.119 0.461 0.184 0.114 0.067 0.212 0.153 0.295 0.256 0.067 0.084 0.117 0.177 0.148 0.277s0.047 0.216 0.047 0.347c0 0.433-0.12 0.761-0.359 0.982-0.136 0.127-0.302 0.224-0.501 0.293s-0.412 0.103-0.642 0.103c-0.259 0-0.52-0.050-0.781-0.147-0.205-0.075-0.391-0.172-0.559-0.29l0.428-0.807c0.301 0.27 0.596 0.406 0.883 0.406 0.181 0 0.31-0.046 0.39-0.138 0.065-0.073 0.099-0.153 0.099-0.24 0-0.113-0.059-0.207-0.175-0.282-0.072-0.047-0.215-0.102-0.429-0.164-0.216-0.062-0.376-0.116-0.478-0.16s-0.189-0.095-0.258-0.153c-0.205-0.17-0.307-0.425-0.307-0.767 0-0.358 0.107-0.654 0.319-0.89 0.248-0.276 0.579-0.415 0.993-0.415 0.205 0 0.411 0.027 0.619 0.081s0.409 0.131 0.602 0.233z"></path>
<path fill="#221e1f" style="fill: var(--color1, #221e1f)" d="M34.639 8.564v-3.739h1.075l0.758 1.264h0.695l0.569-1.264h1.075v3.739h-1.075v-1.716h-0.569l-0.266 0.874h-0.287l-0.287-0.874h-0.521v1.716z"></path>
<path fill="#fff" style="fill: var(--color4, #fff)" d="M18.474 5.142h-1.204v0.651h1.097v0.838h-1.097v1.523h-1.001v-3.85h2.205z"></path>
<path fill="#fff" style="fill: var(--color4, #fff)" d="M23.575 6.719l-0.481-1.224-0.495 1.224h0.976zM23.875 7.483h-1.585l-0.272 0.671h-1.182l1.656-3.85h1.221l1.621 3.85h-1.195z"></path>
<path fill="#fff" style="fill: var(--color4, #fff)" d="M44.691 5.142h-1.472v0.651h1.392v0.838h-1.392v0.685h1.472v0.838h-2.71v-3.85h2.71z"></path>
<path fill="#fff" style="fill: var(--color4, #fff)" d="M29.246 6.024h0.238c0.27 0 0.464-0.044 0.582-0.132 0.055-0.041 0.101-0.094 0.137-0.16s0.054-0.127 0.054-0.187-0.017-0.122-0.053-0.187c-0.035-0.064-0.081-0.117-0.139-0.158-0.118-0.088-0.313-0.132-0.582-0.132h-0.238v0.956zM30.514 6.575l1.551 1.579h-1.598l-1.222-1.478v1.478h-1.283v-3.85h1.995c0.304 0 0.558 0.033 0.764 0.097s0.382 0.169 0.53 0.312c0.108 0.105 0.192 0.226 0.251 0.361s0.088 0.274 0.088 0.415c0 0.158-0.035 0.31-0.104 0.456s-0.165 0.265-0.285 0.359c-0.090 0.070-0.186 0.125-0.29 0.167s-0.236 0.076-0.398 0.104z"></path>
<path fill="#fff" style="fill: var(--color4, #fff)" d="M48.778 6.024h0.239c0.27 0 0.464-0.044 0.582-0.132 0.055-0.041 0.101-0.094 0.137-0.16s0.054-0.127 0.054-0.187-0.017-0.122-0.052-0.187c-0.035-0.064-0.081-0.117-0.139-0.158-0.119-0.088-0.313-0.132-0.582-0.132h-0.239v0.956zM50.046 6.575l1.551 1.579h-1.598l-1.221-1.478v1.478h-1.283v-3.85h1.995c0.304 0 0.559 0.033 0.764 0.097s0.382 0.169 0.53 0.312c0.108 0.105 0.192 0.226 0.251 0.361s0.088 0.274 0.088 0.415c0 0.158-0.035 0.31-0.104 0.456s-0.165 0.265-0.285 0.359c-0.090 0.070-0.186 0.125-0.29 0.167s-0.236 0.076-0.398 0.104z"></path>
<path fill="#fff" style="fill: var(--color4, #fff)" d="M56.276 4.524l-0.4 0.779c-0.218-0.17-0.438-0.254-0.66-0.254-0.141 0-0.251 0.038-0.33 0.116-0.067 0.067-0.101 0.138-0.101 0.215 0 0.101 0.063 0.189 0.189 0.263 0.042 0.024 0.085 0.044 0.13 0.059s0.171 0.053 0.378 0.116c0.193 0.056 0.347 0.119 0.461 0.184 0.114 0.067 0.212 0.153 0.295 0.256 0.067 0.084 0.117 0.177 0.148 0.277s0.047 0.216 0.047 0.347c0 0.433-0.12 0.761-0.359 0.982-0.136 0.127-0.302 0.224-0.501 0.293s-0.412 0.103-0.642 0.103c-0.259 0-0.52-0.050-0.781-0.147-0.205-0.075-0.391-0.172-0.559-0.29l0.428-0.807c0.301 0.27 0.596 0.406 0.883 0.406 0.181 0 0.31-0.046 0.39-0.139 0.065-0.073 0.099-0.153 0.099-0.24 0-0.113-0.059-0.207-0.175-0.282-0.072-0.047-0.215-0.102-0.429-0.164-0.216-0.062-0.376-0.116-0.478-0.16s-0.189-0.095-0.258-0.153c-0.205-0.17-0.307-0.425-0.307-0.767 0-0.358 0.107-0.654 0.319-0.89 0.248-0.276 0.579-0.415 0.993-0.415 0.205 0 0.411 0.027 0.619 0.081s0.409 0.131 0.602 0.233z"></path>
<path fill="#fff" style="fill: var(--color4, #fff)" d="M34.639 8.185v-3.739h1.075l0.758 1.264h0.695l0.569-1.264h1.075v3.739h-1.075v-1.716h-0.569l-0.266 0.874h-0.287l-0.287-0.874h-0.521v1.716z"></path>
<path fill="#221e1f" style="fill: var(--color1, #221e1f)" d="M10.864 5.3v7.441c0.684-0.595 1.312-1.014 1.881-1.261 0.57-0.245 1.161-0.368 1.775-0.368 0.782 0 1.452 0.183 2.007 0.55s0.925 0.798 1.107 1.293c0.182 0.495 0.273 1.33 0.273 2.504v4.018c0 0.785 0.089 1.275 0.268 1.47 0.177 0.194 0.538 0.317 1.080 0.369v0.396h-6.323v-0.396c0.444-0.052 0.778-0.199 1.001-0.441 0.159-0.19 0.239-0.656 0.239-1.398v-4.59c0-0.851-0.039-1.385-0.12-1.601s-0.216-0.386-0.407-0.507-0.407-0.181-0.647-0.181c-0.356 0-0.702 0.101-1.040 0.302s-0.703 0.556-1.094 1.063v5.514c0 0.734 0.067 1.193 0.2 1.376 0.169 0.249 0.516 0.403 1.041 0.462v0.396h-6.324v-0.396c0.525-0.044 0.899-0.184 1.121-0.419 0.151-0.161 0.227-0.635 0.227-1.42v-10.457c0-0.778-0.087-1.262-0.26-1.453s-0.536-0.316-1.087-0.374v-1.072z"></path>
<path fill="#221e1f" style="fill: var(--color1, #221e1f)" d="M25.55 11.893c-0.441 0-0.819 0.141-1.134 0.424s-0.523 0.84-0.622 1.673c-0.099 0.833-0.149 1.99-0.149 3.473 0 0.785 0.061 1.519 0.181 2.202 0.095 0.521 0.298 0.917 0.609 1.189s0.665 0.407 1.063 0.407c0.388 0 0.713-0.091 0.972-0.275 0.336-0.25 0.561-0.598 0.673-1.046 0.172-0.697 0.259-2.106 0.259-4.227 0-1.247-0.082-2.104-0.246-2.57s-0.406-0.805-0.726-1.018c-0.225-0.154-0.519-0.231-0.881-0.231zM25.498 11.111c1.053 0 2.034 0.232 2.942 0.694s1.595 1.119 2.067 1.97c0.47 0.851 0.706 1.783 0.706 2.796 0 1.461-0.436 2.682-1.309 3.665-1.054 1.189-2.509 1.784-4.367 1.784-1.823 0-3.227-0.544-4.211-1.63s-1.477-2.345-1.477-3.775c0-1.476 0.503-2.761 1.51-3.858s2.386-1.646 4.14-1.646z"></path>
<path fill="#221e1f" style="fill: var(--color1, #221e1f)" d="M37.487 11.42v1.353c0.608-0.616 1.17-1.047 1.687-1.293 0.518-0.245 1.084-0.368 1.699-0.368 0.71 0 1.307 0.153 1.787 0.462s0.853 0.778 1.113 1.409c0.631-0.661 1.237-1.138 1.816-1.431 0.581-0.293 1.187-0.44 1.818-0.44 0.766 0 1.376 0.163 1.829 0.49s0.77 0.742 0.947 1.244c0.178 0.503 0.267 1.304 0.267 2.405v4.216c0 0.793 0.077 1.284 0.231 1.475s0.475 0.315 0.964 0.375v0.396h-5.718v-0.396c0.45-0.037 0.781-0.199 0.994-0.484 0.142-0.199 0.213-0.653 0.213-1.365v-4.425c0-0.918-0.039-1.501-0.118-1.75s-0.204-0.435-0.373-0.556c-0.17-0.121-0.37-0.182-0.599-0.182-0.339 0-0.682 0.116-1.030 0.347s-0.699 0.578-1.053 1.041v5.525c0 0.741 0.067 1.207 0.201 1.398 0.181 0.271 0.529 0.422 1.042 0.451v0.396h-5.73v-0.396c0.308-0.015 0.55-0.087 0.728-0.215s0.296-0.282 0.356-0.462c0.059-0.18 0.088-0.57 0.088-1.173v-4.425c0-0.932-0.039-1.515-0.118-1.75s-0.211-0.419-0.397-0.55c-0.185-0.132-0.385-0.198-0.598-0.198-0.316 0-0.604 0.078-0.864 0.231-0.371 0.228-0.765 0.617-1.184 1.167v5.525c0 0.727 0.077 1.205 0.231 1.436s0.476 0.369 0.964 0.413v0.396h-5.706v-0.396c0.465-0.044 0.797-0.184 0.995-0.419 0.134-0.161 0.201-0.638 0.201-1.431v-5.812c0-0.778-0.077-1.261-0.23-1.453s-0.476-0.316-0.965-0.375v-0.407z"></path>
<path fill="#221e1f" style="fill: var(--color1, #221e1f)" d="M60.437 15.459c0-1.181-0.076-1.993-0.229-2.433s-0.391-0.774-0.715-1.002c-0.183-0.132-0.427-0.198-0.734-0.198-0.453 0-0.825 0.187-1.113 0.561-0.516 0.653-0.773 1.549-0.773 2.686v0.385h3.565zM63.661 16.197h-6.724c0.078 1.364 0.511 2.444 1.298 3.236 0.602 0.61 1.328 0.914 2.176 0.914 0.524 0 1.001-0.123 1.429-0.369s0.887-0.688 1.376-1.327l0.446 0.243c-0.664 1.137-1.398 1.942-2.201 2.416s-1.735 0.71-2.792 0.71c-1.818 0-3.193-0.587-4.129-1.761-0.751-0.947-1.127-2.121-1.127-3.522 0-1.717 0.552-3.084 1.658-4.1s2.4-1.524 3.886-1.524c1.24 0 2.318 0.427 3.231 1.282s1.404 2.122 1.474 3.803z"></path>
<path fill="#fddc66" style="fill: var(--color2, #fddc66)" d="M10.864 4.731v7.441c0.684-0.595 1.312-1.014 1.881-1.261 0.57-0.245 1.161-0.368 1.775-0.368 0.782 0 1.452 0.183 2.007 0.55s0.925 0.798 1.107 1.293c0.182 0.495 0.273 1.33 0.273 2.504v4.018c0 0.785 0.089 1.275 0.268 1.47 0.177 0.194 0.538 0.317 1.080 0.369v0.396h-6.323v-0.396c0.444-0.052 0.778-0.199 1.001-0.441 0.159-0.19 0.239-0.656 0.239-1.398v-4.59c0-0.851-0.039-1.385-0.12-1.601s-0.216-0.386-0.407-0.507-0.407-0.181-0.647-0.181c-0.356 0-0.702 0.101-1.040 0.302s-0.703 0.556-1.094 1.063v5.514c0 0.734 0.067 1.193 0.2 1.376 0.169 0.249 0.516 0.403 1.041 0.462v0.396h-6.324v-0.396c0.525-0.044 0.899-0.184 1.121-0.419 0.151-0.161 0.227-0.635 0.227-1.42v-10.457c0-0.778-0.087-1.262-0.26-1.453s-0.536-0.316-1.087-0.374v-1.072z"></path>
<path fill="#fddc66" style="fill: var(--color2, #fddc66)" d="M25.55 11.324c-0.441 0-0.819 0.141-1.134 0.424s-0.523 0.84-0.622 1.673c-0.099 0.833-0.149 1.99-0.149 3.473 0 0.785 0.061 1.519 0.181 2.202 0.095 0.521 0.298 0.917 0.609 1.189s0.665 0.407 1.063 0.407c0.388 0 0.713-0.091 0.972-0.275 0.336-0.25 0.561-0.598 0.673-1.046 0.172-0.697 0.259-2.106 0.259-4.227 0-1.247-0.082-2.104-0.246-2.57s-0.406-0.805-0.726-1.018c-0.225-0.154-0.519-0.231-0.881-0.231zM25.498 10.542c1.053 0 2.034 0.232 2.942 0.694s1.595 1.119 2.067 1.97c0.47 0.851 0.706 1.783 0.706 2.796 0 1.461-0.436 2.682-1.309 3.665-1.054 1.189-2.509 1.784-4.367 1.784-1.823 0-3.227-0.544-4.211-1.63s-1.477-2.345-1.477-3.775c0-1.476 0.503-2.761 1.51-3.858s2.386-1.646 4.14-1.646z"></path>
<path fill="#fddc66" style="fill: var(--color2, #fddc66)" d="M37.487 10.851v1.353c0.608-0.616 1.17-1.047 1.687-1.293 0.518-0.245 1.084-0.368 1.699-0.368 0.71 0 1.307 0.153 1.787 0.462s0.853 0.778 1.113 1.409c0.631-0.661 1.237-1.138 1.816-1.431 0.581-0.293 1.187-0.44 1.818-0.44 0.766 0 1.376 0.163 1.829 0.49s0.77 0.742 0.947 1.244c0.178 0.503 0.267 1.304 0.267 2.405v4.216c0 0.793 0.077 1.284 0.231 1.475s0.475 0.315 0.964 0.375v0.396h-5.718v-0.396c0.45-0.037 0.781-0.199 0.994-0.484 0.142-0.199 0.213-0.653 0.213-1.365v-4.425c0-0.918-0.039-1.501-0.118-1.75s-0.204-0.435-0.373-0.556c-0.17-0.121-0.37-0.182-0.599-0.182-0.339 0-0.682 0.116-1.030 0.347s-0.699 0.578-1.053 1.041v5.525c0 0.741 0.067 1.207 0.201 1.398 0.181 0.271 0.529 0.422 1.042 0.451v0.396h-5.73v-0.396c0.308-0.015 0.55-0.087 0.728-0.215s0.296-0.282 0.356-0.462c0.059-0.18 0.088-0.57 0.088-1.173v-4.425c0-0.932-0.039-1.515-0.118-1.75s-0.211-0.419-0.397-0.55c-0.185-0.132-0.385-0.198-0.598-0.198-0.316 0-0.604 0.078-0.864 0.231-0.371 0.228-0.765 0.617-1.184 1.167v5.525c0 0.727 0.077 1.205 0.231 1.436s0.476 0.369 0.964 0.413v0.396h-5.706v-0.396c0.465-0.044 0.797-0.184 0.995-0.419 0.134-0.161 0.201-0.638 0.201-1.431v-5.812c0-0.778-0.077-1.261-0.23-1.453s-0.476-0.316-0.965-0.375v-0.407z"></path>
<path fill="#fddc66" style="fill: var(--color2, #fddc66)" d="M60.437 14.89c0-1.181-0.076-1.993-0.229-2.433s-0.391-0.774-0.715-1.002c-0.183-0.132-0.427-0.198-0.734-0.198-0.453 0-0.825 0.187-1.113 0.561-0.516 0.653-0.773 1.549-0.773 2.686v0.385h3.565zM63.661 15.628h-6.724c0.078 1.364 0.511 2.444 1.298 3.236 0.602 0.61 1.328 0.914 2.176 0.914 0.524 0 1.001-0.123 1.429-0.369s0.887-0.688 1.376-1.327l0.446 0.243c-0.664 1.137-1.398 1.942-2.201 2.416s-1.735 0.71-2.792 0.71c-1.818 0-3.193-0.587-4.129-1.761-0.751-0.947-1.127-2.121-1.127-3.522 0-1.717 0.552-3.084 1.658-4.1s2.4-1.524 3.886-1.524c1.24 0 2.318 0.427 3.231 1.282s1.404 2.122 1.474 3.803z"></path>
</symbol>
</defs>
</svg>
